<svg width="28" height="31" viewBox="0 0 28 31" fill="none" xmlns="http://www.w3.org/2000/svg">
<path d="M11.9519 0.366121C12.0652 0.250006 12.2007 0.157786 12.3503 0.0949037C12.4999 0.0320218 12.6606 -0.000247505 12.8229 1.42935e-06C12.9851 0.000250364 13.1457 0.0330123 13.2951 0.0963529C13.4445 0.159693 13.5797 0.25233 13.6928 0.368792L27.5292 14.5686C27.7722 14.818 27.9082 15.1524 27.9082 15.5007C27.9082 15.8489 27.7722 16.1834 27.5292 16.4327L13.6928 30.6325C13.5796 30.7488 13.4442 30.8413 13.2947 30.9044C13.1452 30.9675 12.9846 31 12.8223 31C12.66 31 12.4994 30.9675 12.3499 30.9044C12.2004 30.8413 12.0651 30.7488 11.9519 30.6325C11.719 30.3941 11.5886 30.0739 11.5886 29.7405C11.5886 29.4072 11.719 29.087 11.9519 28.8486L24.9632 15.5007L11.9519 2.14744C11.7198 1.90908 11.5899 1.58951 11.5899 1.25678C11.5899 0.924058 11.7198 0.604482 11.9519 0.366121ZM1.27148 0.366121C1.38486 0.250006 1.52034 0.157786 1.66994 0.0949037C1.81954 0.0320218 1.98022 -0.000247505 2.14249 1.42935e-06C2.30476 0.000250364 2.46534 0.0330123 2.61474 0.0963529C2.76415 0.159693 2.89935 0.25233 3.01238 0.368792L16.8488 14.5686C17.0918 14.818 17.2278 15.1524 17.2278 15.5007C17.2278 15.8489 17.0918 16.1834 16.8488 16.4327L3.01238 30.6325C2.89918 30.7488 2.76383 30.8413 2.61433 30.9044C2.46483 30.9675 2.3042 31 2.14193 31C1.97966 31 1.81903 30.9675 1.66953 30.9044C1.52002 30.8413 1.38468 30.7488 1.27148 30.6325C1.03858 30.3941 0.908203 30.0739 0.908203 29.7405C0.908203 29.4072 1.03858 29.087 1.27148 28.8486L14.2828 15.5007L1.27148 2.14744C1.03938 1.90908 0.909505 1.58951 0.909505 1.25678C0.909505 0.924058 1.03938 0.604482 1.27148 0.366121Z" fill="#0796A0"/>
</svg>
