<svg width="302" height="73" viewBox="0 0 302 73" fill="none" xmlns="http://www.w3.org/2000/svg">
<g clip-path="url(#clip0_1_74)">
<path d="M74.7902 27.933L45.56 73L0.464478 43.7882L34.6742 22.0339L74.7902 27.933Z" fill="#D2E2E3"/>
<path d="M76 24.8483L38.0001 62.8244L0 24.8483L38.0001 10.7103L76 24.8483Z" fill="#498B91"/>
<path d="M74.8248 21.6432L29.8245 51.0011L0.447998 6.02919L40.5447 0L74.8248 21.6432Z" fill="#1C6E75"/>
</g>
<path d="M102.34 18.024C102.964 18.336 103.324 18.828 103.42 19.5C103.54 20.172 103.372 20.784 102.916 21.336C102.604 21.768 102.196 22.008 101.692 22.056C101.212 22.104 100.72 22.008 100.216 21.768C99.64 21.504 99.028 21.3 98.38 21.156C97.756 21.012 97.096 20.94 96.4 20.94C95.104 20.94 93.94 21.144 92.908 21.552C91.9 21.96 91.036 22.548 90.316 23.316C89.596 24.06 89.044 24.948 88.66 25.98C88.3 27.012 88.12 28.152 88.12 29.4C88.12 30.864 88.324 32.136 88.732 33.216C89.164 34.296 89.752 35.196 90.496 35.916C91.24 36.636 92.116 37.176 93.124 37.536C94.132 37.872 95.224 38.04 96.4 38.04C97.048 38.04 97.696 37.98 98.344 37.86C98.992 37.74 99.616 37.524 100.216 37.212C100.72 36.972 101.212 36.888 101.692 36.96C102.196 37.032 102.616 37.284 102.952 37.716C103.432 38.316 103.6 38.94 103.456 39.588C103.336 40.212 102.976 40.668 102.376 40.956C101.752 41.268 101.104 41.532 100.432 41.748C99.784 41.94 99.124 42.084 98.452 42.18C97.78 42.3 97.096 42.36 96.4 42.36C94.672 42.36 93.028 42.084 91.468 41.532C89.932 40.98 88.552 40.164 87.328 39.084C86.128 38.004 85.18 36.66 84.484 35.052C83.788 33.42 83.44 31.536 83.44 29.4C83.44 27.552 83.752 25.848 84.376 24.288C85.024 22.728 85.924 21.384 87.076 20.256C88.252 19.104 89.632 18.216 91.216 17.592C92.8 16.944 94.528 16.62 96.4 16.62C97.456 16.62 98.488 16.74 99.496 16.98C100.504 17.22 101.452 17.568 102.34 18.024ZM125.594 32.388C125.594 34.356 125.15 36.096 124.262 37.608C123.398 39.096 122.222 40.26 120.734 41.1C119.27 41.94 117.626 42.36 115.802 42.36C113.978 42.36 112.322 41.94 110.834 41.1C109.37 40.26 108.194 39.096 107.306 37.608C106.442 36.096 106.01 34.356 106.01 32.388C106.01 30.42 106.442 28.692 107.306 27.204C108.194 25.692 109.37 24.516 110.834 23.676C112.322 22.812 113.978 22.38 115.802 22.38C117.626 22.38 119.27 22.812 120.734 23.676C122.222 24.516 123.398 25.692 124.262 27.204C125.15 28.692 125.594 30.42 125.594 32.388ZM121.274 32.388C121.274 31.164 121.022 30.108 120.518 29.22C120.038 28.308 119.378 27.6 118.538 27.096C117.722 26.592 116.81 26.34 115.802 26.34C114.794 26.34 113.87 26.592 113.03 27.096C112.214 27.6 111.554 28.308 111.05 29.22C110.57 30.108 110.33 31.164 110.33 32.388C110.33 33.588 110.57 34.644 111.05 35.556C111.554 36.444 112.214 37.14 113.03 37.644C113.87 38.148 114.794 38.4 115.802 38.4C116.81 38.4 117.722 38.148 118.538 37.644C119.378 37.14 120.038 36.444 120.518 35.556C121.022 34.644 121.274 33.588 121.274 32.388ZM139.671 22.38C141.447 22.38 142.791 22.752 143.703 23.496C144.639 24.24 145.275 25.236 145.611 26.484C145.971 27.708 146.151 29.076 146.151 30.588V39.804C146.151 40.428 145.947 40.956 145.539 41.388C145.131 41.796 144.615 42 143.991 42C143.367 42 142.851 41.796 142.443 41.388C142.035 40.956 141.831 40.428 141.831 39.804V30.588C141.831 29.796 141.723 29.088 141.507 28.464C141.315 27.816 140.955 27.3 140.427 26.916C139.899 26.532 139.143 26.34 138.159 26.34C137.199 26.34 136.383 26.532 135.711 26.916C135.063 27.3 134.559 27.816 134.199 28.464C133.863 29.088 133.695 29.796 133.695 30.588V39.804C133.695 40.428 133.491 40.956 133.083 41.388C132.675 41.796 132.159 42 131.535 42C130.911 42 130.395 41.796 129.987 41.388C129.579 40.956 129.375 40.428 129.375 39.804V24.936C129.375 24.312 129.579 23.796 129.987 23.388C130.395 22.956 130.911 22.74 131.535 22.74C132.159 22.74 132.675 22.956 133.083 23.388C133.491 23.796 133.695 24.312 133.695 24.936V26.484L133.155 26.376C133.371 25.968 133.683 25.536 134.091 25.08C134.499 24.6 134.979 24.156 135.531 23.748C136.083 23.34 136.707 23.016 137.403 22.776C138.099 22.512 138.855 22.38 139.671 22.38ZM160.72 15.36C161.248 15.36 161.764 15.432 162.268 15.576C162.772 15.72 163.192 15.96 163.528 16.296C163.864 16.608 164.032 17.028 164.032 17.556C164.032 18.156 163.852 18.636 163.492 18.996C163.156 19.332 162.76 19.5 162.304 19.5C162.088 19.5 161.764 19.452 161.332 19.356C160.9 19.236 160.48 19.176 160.072 19.176C159.472 19.176 159.004 19.308 158.668 19.572C158.356 19.836 158.14 20.148 158.02 20.508C157.9 20.844 157.84 21.144 157.84 21.408V39.804C157.84 40.428 157.636 40.956 157.228 41.388C156.82 41.796 156.304 42 155.68 42C155.056 42 154.54 41.796 154.132 41.388C153.724 40.956 153.52 40.428 153.52 39.804V21.444C153.52 19.74 154.12 18.3 155.32 17.124C156.52 15.948 158.32 15.36 160.72 15.36ZM161.116 23.1C161.692 23.1 162.172 23.292 162.556 23.676C162.94 24.036 163.132 24.504 163.132 25.08C163.132 25.656 162.94 26.136 162.556 26.52C162.172 26.88 161.692 27.06 161.116 27.06H151.576C151 27.06 150.52 26.88 150.136 26.52C149.752 26.136 149.56 25.656 149.56 25.08C149.56 24.504 149.752 24.036 150.136 23.676C150.52 23.292 151 23.1 151.576 23.1H161.116ZM170.62 39.804C170.62 40.428 170.416 40.956 170.008 41.388C169.6 41.796 169.084 42 168.46 42C167.836 42 167.32 41.796 166.912 41.388C166.504 40.956 166.3 40.428 166.3 39.804V24.936C166.3 24.312 166.504 23.796 166.912 23.388C167.32 22.956 167.836 22.74 168.46 22.74C169.084 22.74 169.6 22.956 170.008 23.388C170.416 23.796 170.62 24.312 170.62 24.936V39.804ZM168.424 20.4C167.608 20.4 167.032 20.268 166.696 20.004C166.36 19.74 166.192 19.272 166.192 18.6V17.916C166.192 17.22 166.372 16.752 166.732 16.512C167.116 16.248 167.692 16.116 168.46 16.116C169.3 16.116 169.888 16.248 170.224 16.512C170.56 16.776 170.728 17.244 170.728 17.916V18.6C170.728 19.296 170.548 19.776 170.188 20.04C169.828 20.28 169.24 20.4 168.424 20.4ZM183.035 22.38C184.043 22.38 184.967 22.536 185.807 22.848C186.647 23.16 187.367 23.556 187.967 24.036C188.591 24.516 189.071 25.008 189.407 25.512C189.767 25.992 189.947 26.4 189.947 26.736L189.011 27.204V24.576C189.011 23.952 189.215 23.436 189.623 23.028C190.031 22.596 190.547 22.38 191.171 22.38C191.795 22.38 192.311 22.584 192.719 22.992C193.127 23.4 193.331 23.928 193.331 24.576V40.596C193.331 42.684 192.875 44.352 191.963 45.6C191.075 46.872 189.899 47.784 188.435 48.336C186.971 48.912 185.399 49.2 183.719 49.2C183.239 49.2 182.615 49.14 181.847 49.02C181.079 48.9 180.347 48.756 179.651 48.588C178.955 48.42 178.427 48.264 178.067 48.12C177.347 47.808 176.843 47.412 176.555 46.932C176.291 46.476 176.243 45.984 176.411 45.456C176.627 44.76 176.975 44.28 177.455 44.016C177.935 43.776 178.439 43.752 178.967 43.944C179.207 44.016 179.603 44.16 180.155 44.376C180.707 44.592 181.307 44.784 181.955 44.952C182.627 45.144 183.215 45.24 183.719 45.24C185.519 45.24 186.851 44.88 187.715 44.16C188.579 43.44 189.011 42.444 189.011 41.172V38.04L189.443 38.364C189.443 38.676 189.275 39.06 188.939 39.516C188.627 39.948 188.183 40.38 187.607 40.812C187.055 41.244 186.395 41.616 185.627 41.928C184.859 42.216 184.043 42.36 183.179 42.36C181.475 42.36 179.939 41.94 178.571 41.1C177.203 40.236 176.123 39.06 175.331 37.572C174.539 36.06 174.143 34.332 174.143 32.388C174.143 30.42 174.539 28.692 175.331 27.204C176.123 25.692 177.191 24.516 178.535 23.676C179.879 22.812 181.379 22.38 183.035 22.38ZM183.719 26.34C182.639 26.34 181.691 26.604 180.875 27.132C180.059 27.66 179.423 28.38 178.967 29.292C178.511 30.204 178.283 31.236 178.283 32.388C178.283 33.516 178.511 34.536 178.967 35.448C179.423 36.36 180.059 37.08 180.875 37.608C181.691 38.136 182.639 38.4 183.719 38.4C184.823 38.4 185.783 38.136 186.599 37.608C187.415 37.08 188.051 36.36 188.507 35.448C188.963 34.536 189.191 33.516 189.191 32.388C189.191 31.236 188.963 30.204 188.507 29.292C188.051 28.38 187.415 27.66 186.599 27.132C185.783 26.604 184.823 26.34 183.719 26.34ZM206.712 42.36C204.648 42.36 202.896 41.82 201.456 40.74C200.04 39.636 198.96 38.112 198.216 36.168C197.472 34.2 197.1 31.944 197.1 29.4C197.1 26.832 197.472 24.576 198.216 22.632C198.96 20.688 200.04 19.176 201.456 18.096C202.896 16.992 204.648 16.44 206.712 16.44C208.776 16.44 210.516 16.992 211.932 18.096C213.372 19.176 214.464 20.688 215.208 22.632C215.952 24.576 216.324 26.832 216.324 29.4C216.324 31.944 215.952 34.2 215.208 36.168C214.464 38.112 213.372 39.636 211.932 40.74C210.516 41.82 208.776 42.36 206.712 42.36ZM206.712 38.04C207.72 38.04 208.584 37.728 209.304 37.104C210.048 36.456 210.624 35.496 211.032 34.224C211.44 32.928 211.644 31.32 211.644 29.4C211.644 27.456 211.44 25.848 211.032 24.576C210.624 23.304 210.048 22.356 209.304 21.732C208.584 21.084 207.72 20.76 206.712 20.76C205.728 20.76 204.864 21.084 204.12 21.732C203.376 22.356 202.8 23.304 202.392 24.576C201.984 25.848 201.78 27.456 201.78 29.4C201.78 31.32 201.984 32.928 202.392 34.224C202.8 35.496 203.376 36.456 204.12 37.104C204.864 37.728 205.728 38.04 206.712 38.04ZM222.021 41.964C221.325 41.964 220.785 41.784 220.401 41.424C220.041 41.04 219.861 40.5 219.861 39.804V39.192C219.861 38.496 220.041 37.968 220.401 37.608C220.785 37.224 221.325 37.032 222.021 37.032H222.489C223.185 37.032 223.713 37.224 224.073 37.608C224.457 37.968 224.649 38.496 224.649 39.192V39.804C224.649 40.5 224.457 41.04 224.073 41.424C223.713 41.784 223.185 41.964 222.489 41.964H222.021ZM237.646 22.38C239.014 22.38 240.202 22.524 241.21 22.812C242.242 23.1 243.034 23.508 243.586 24.036C244.162 24.54 244.45 25.152 244.45 25.872C244.45 26.352 244.306 26.808 244.018 27.24C243.73 27.648 243.31 27.852 242.758 27.852C242.374 27.852 242.05 27.804 241.786 27.708C241.546 27.588 241.33 27.444 241.138 27.276C240.946 27.108 240.718 26.952 240.454 26.808C240.214 26.664 239.842 26.556 239.338 26.484C238.858 26.388 238.498 26.34 238.258 26.34C237.034 26.34 235.99 26.604 235.126 27.132C234.286 27.66 233.638 28.38 233.182 29.292C232.726 30.18 232.498 31.212 232.498 32.388C232.498 33.54 232.726 34.572 233.182 35.484C233.662 36.372 234.31 37.08 235.126 37.608C235.966 38.136 236.926 38.4 238.006 38.4C238.606 38.4 239.122 38.364 239.554 38.292C239.986 38.22 240.346 38.112 240.634 37.968C240.97 37.776 241.27 37.572 241.534 37.356C241.798 37.14 242.194 37.032 242.722 37.032C243.346 37.032 243.826 37.236 244.162 37.644C244.498 38.028 244.666 38.508 244.666 39.084C244.666 39.684 244.33 40.236 243.658 40.74C242.986 41.22 242.098 41.616 240.994 41.928C239.914 42.216 238.738 42.36 237.466 42.36C235.57 42.36 233.926 41.928 232.534 41.064C231.142 40.176 230.062 38.976 229.294 37.464C228.55 35.952 228.178 34.26 228.178 32.388C228.178 30.42 228.574 28.692 229.366 27.204C230.182 25.692 231.298 24.516 232.714 23.676C234.154 22.812 235.798 22.38 237.646 22.38ZM266.465 32.388C266.465 34.356 266.021 36.096 265.133 37.608C264.269 39.096 263.093 40.26 261.605 41.1C260.141 41.94 258.497 42.36 256.673 42.36C254.849 42.36 253.193 41.94 251.705 41.1C250.241 40.26 249.065 39.096 248.177 37.608C247.313 36.096 246.881 34.356 246.881 32.388C246.881 30.42 247.313 28.692 248.177 27.204C249.065 25.692 250.241 24.516 251.705 23.676C253.193 22.812 254.849 22.38 256.673 22.38C258.497 22.38 260.141 22.812 261.605 23.676C263.093 24.516 264.269 25.692 265.133 27.204C266.021 28.692 266.465 30.42 266.465 32.388ZM262.145 32.388C262.145 31.164 261.893 30.108 261.389 29.22C260.909 28.308 260.249 27.6 259.409 27.096C258.593 26.592 257.681 26.34 256.673 26.34C255.665 26.34 254.741 26.592 253.901 27.096C253.085 27.6 252.425 28.308 251.921 29.22C251.441 30.108 251.201 31.164 251.201 32.388C251.201 33.588 251.441 34.644 251.921 35.556C252.425 36.444 253.085 37.14 253.901 37.644C254.741 38.148 255.665 38.4 256.673 38.4C257.681 38.4 258.593 38.148 259.409 37.644C260.249 37.14 260.909 36.444 261.389 35.556C261.893 34.644 262.145 33.588 262.145 32.388ZM280.362 22.38C282.282 22.38 283.698 22.848 284.61 23.784C285.522 24.696 286.122 25.884 286.41 27.348L285.798 27.024L286.086 26.448C286.374 25.896 286.818 25.308 287.418 24.684C288.018 24.036 288.738 23.496 289.578 23.064C290.442 22.608 291.402 22.38 292.458 22.38C294.186 22.38 295.494 22.752 296.382 23.496C297.294 24.24 297.918 25.236 298.254 26.484C298.59 27.708 298.758 29.076 298.758 30.588V39.804C298.758 40.428 298.554 40.956 298.146 41.388C297.738 41.796 297.222 42 296.598 42C295.974 42 295.458 41.796 295.05 41.388C294.642 40.956 294.438 40.428 294.438 39.804V30.588C294.438 29.796 294.342 29.088 294.15 28.464C293.958 27.816 293.61 27.3 293.106 26.916C292.602 26.532 291.882 26.34 290.946 26.34C290.034 26.34 289.254 26.532 288.606 26.916C287.958 27.3 287.466 27.816 287.13 28.464C286.818 29.088 286.662 29.796 286.662 30.588V39.804C286.662 40.428 286.458 40.956 286.05 41.388C285.642 41.796 285.126 42 284.502 42C283.878 42 283.362 41.796 282.954 41.388C282.546 40.956 282.342 40.428 282.342 39.804V30.588C282.342 29.796 282.246 29.088 282.054 28.464C281.862 27.816 281.514 27.3 281.01 26.916C280.506 26.532 279.786 26.34 278.85 26.34C277.938 26.34 277.158 26.532 276.51 26.916C275.862 27.3 275.37 27.816 275.034 28.464C274.722 29.088 274.566 29.796 274.566 30.588V39.804C274.566 40.428 274.362 40.956 273.954 41.388C273.546 41.796 273.03 42 272.406 42C271.782 42 271.266 41.796 270.858 41.388C270.45 40.956 270.246 40.428 270.246 39.804V24.936C270.246 24.312 270.45 23.796 270.858 23.388C271.266 22.956 271.782 22.74 272.406 22.74C273.03 22.74 273.546 22.956 273.954 23.388C274.362 23.796 274.566 24.312 274.566 24.936V26.484L274.026 26.376C274.242 25.968 274.542 25.536 274.926 25.08C275.31 24.6 275.778 24.156 276.33 23.748C276.882 23.34 277.494 23.016 278.166 22.776C278.838 22.512 279.57 22.38 280.362 22.38Z" fill="#2E2E2E"/>
<defs>
<clipPath id="clip0_1_74">
<rect width="76" height="73" fill="white"/>
</clipPath>
</defs>
</svg>
